<svg width="6378" height="1815" viewBox="0 0 6378 1815" fill="none" xmlns="http://www.w3.org/2000/svg">
<path d="M189.865 369.385C238.764 335.075 301.016 294.86 354.485 268.542C355.217 268.179 355.95 267.816 356.684 267.453C378.113 256.873 400.993 246.353 428.313 234.821C431.839 233.332 435.476 231.814 439.213 230.269C471.794 216.885 512.232 201.096 568.791 182.918C757.952 122.211 914.623 105.667 963.424 100.123C1060.52 90.073 1166.29 87.4738 1308.26 101.706C1321.1 103.028 1334.36 104.528 1348.06 106.216C1359.17 107.581 1368.22 110.452 1368.2 112.489C1368.18 114.531 1359.12 114.96 1348.06 113.594C1334.69 111.94 1321.76 110.478 1309.24 109.179C1309.19 109.173 1309.13 109.167 1309.07 109.161C1166.63 94.8271 1063.98 97.4826 969.211 106.945C919.654 112.437 759.633 128.822 566.963 191.243C509.953 209.75 469.634 225.66 436.77 239.307C433.15 240.82 429.643 242.298 426.255 243.741C426.175 243.775 426.095 243.809 426.015 243.842C398.94 255.379 376.79 265.687 356.609 275.707C356.178 275.923 355.749 276.138 355.319 276.354C301.539 302.966 241.017 342.435 193.739 375.612C184.369 382.136 176.33 385.917 175.22 384.22C174.132 382.517 180.434 375.95 189.865 369.385ZM3368.24 1736.46C3424.23 1712.8 3496.96 1678.91 3559.73 1646.51C3623.11 1614.02 3679.19 1583 3705.94 1568.53C3731.69 1554.59 3760.14 1537.68 3793.33 1517.3C3800.95 1512.62 3809.09 1507.58 3817.11 1502.6C3843.81 1486.04 3874 1467.11 3906.76 1446.87C4027.77 1371.88 4105.36 1322.35 4161.14 1287.4C4172.71 1280.13 4183.29 1273.49 4193.28 1267.26C4193.29 1267.25 4193.31 1267.24 4193.33 1267.22C4231.11 1243.64 4259.37 1226.36 4286.01 1211.38C4333.38 1184.81 4372.34 1163.65 4420.11 1139.76C4485.88 1106.64 4578.25 1057.74 4638.58 1026.3C4641.89 1024.55 4645.28 1022.77 4648.69 1020.99C4683.92 1002.64 4726.01 981.174 4785.04 954.859C4799.45 948.459 4814.53 942.246 4830.31 936.393C4899.5 910.771 4961.52 900.352 5017.77 899.944C5033.23 899.832 5048.84 900.53 5063.26 901.851C5099.21 905.134 5131.65 912.287 5161.33 921.227C5344.28 984.507 5421.69 1084.92 5475.03 1132.08C5514.84 1171.99 5536.03 1195.93 5551.53 1212.94C5556.21 1218.1 5560.28 1222.61 5564.28 1226.91C5599.58 1264.84 5633.36 1299.13 5677.33 1338.09C5687.23 1346.81 5697.69 1355.75 5708.75 1364.8C5746.03 1395.29 5777.45 1414.83 5802.94 1428.39C5814.06 1434.3 5824.38 1439.25 5834.06 1443.56C5834.24 1443.64 5834.41 1443.72 5834.59 1443.8C5835.95 1444.4 5837.29 1444.99 5838.63 1445.58C5839.64 1446.02 5840.66 1446.44 5841.67 1446.88C5842.08 1447.02 5842.44 1447.16 5842.71 1447.26C5842.93 1447.34 5843.1 1447.41 5843.21 1447.45C5843.23 1447.45 5843.25 1447.46 5843.27 1447.46C5845.23 1448.2 5846.89 1448.87 5847.23 1449.01C5847.83 1449.25 5848.35 1449.47 5848.62 1449.59C5850.04 1450.17 5851.87 1450.94 5853.08 1451.45C5856.19 1452.75 5861.67 1455.06 5870.26 1458.32C5877.77 1461.08 5885.07 1463.51 5894.32 1466.26C5894.91 1466.43 5895.49 1466.6 5896.07 1466.77C5905.14 1469.4 5915.74 1472.23 5929.29 1475.13C5941.6 1477.79 5952.9 1481.15 5954.29 1483.41C5955.68 1485.66 5946.36 1486.09 5933.73 1483.59C5920.66 1480.98 5910.52 1478.47 5901.26 1475.95C5900.68 1475.79 5900.09 1475.63 5899.51 1475.47C5889.87 1472.79 5880.86 1469.97 5871.31 1466.54C5868.12 1465.39 5864.84 1464.16 5861.8 1462.97C5856.29 1460.88 5850.11 1458.47 5842.79 1455.43C5841.32 1454.82 5839.81 1454.17 5838.27 1453.51C5828.38 1449.28 5816.97 1444.04 5804.46 1437.53C5775.6 1422.56 5740.33 1400.55 5699.81 1367C5689.23 1358.25 5678.97 1349.42 5669.37 1340.9C5624.97 1301.35 5588.84 1264.55 5551.41 1224.2C5546.32 1218.68 5541.48 1213.34 5536.31 1207.63C5520.93 1190.73 5502.9 1170.36 5466.14 1133.64C5415.42 1089.1 5339.86 991.412 5160.96 928.774C5130.28 919.376 5096.32 912.013 5060.24 908.938C5046.25 907.731 5031.56 907.163 5017.22 907.284C4962.59 907.786 4903.56 917.634 4837.08 941.769C4819.83 948.055 4803.45 954.773 4787.89 961.695C4733.17 986.128 4693.63 1006.14 4659.68 1023.72C4658.18 1024.5 4656.69 1025.28 4655.19 1026.06C4653.33 1027.03 4651.48 1028 4649.66 1028.95C4585.39 1062.22 4487.36 1114.13 4414.83 1150.84C4369.33 1173.71 4332.07 1193.97 4285.01 1220.43C4261.86 1233.47 4237.72 1248.2 4200.69 1271.28C4190.3 1277.76 4179.05 1284.8 4166.29 1292.82C4109.51 1328.37 4030.85 1378.62 3908.42 1454.48C3876.71 1474.06 3847.77 1492.21 3821.21 1508.69C3813.03 1513.76 3804.59 1518.98 3796.56 1523.91C3763.23 1544.38 3731.38 1563.38 3701.66 1579.39C3676.47 1592.97 3622.34 1622.76 3560.35 1654.45C3498.18 1686.43 3430.48 1717.74 3381.39 1739.04C3376.18 1741.32 3370.93 1743.57 3365.71 1745.77C3321.45 1764.57 3273.07 1780.79 3234.03 1792.07C3164.12 1815.5 3056.6 1828.58 2949.19 1789.09C2787.46 1737.34 2677.04 1572.51 2631.21 1454.87C2630.1 1452.27 2629 1449.67 2627.91 1447.06C2538.35 1213.73 2504.48 1046.54 2482.96 991.368C2482.13 988.756 2481.36 986.379 2480.67 984.243C2480.05 982.327 2479.5 980.642 2479.01 979.134C2471.7 956.586 2464.72 936.648 2457.17 915.996C2456.76 914.874 2456.35 913.753 2455.94 912.631C2447.97 890.976 2439.23 868.032 2428.75 841.585C2389.58 742.719 2348.54 667.229 2307.69 606.009C2300.15 594.716 2292.58 583.842 2284.97 573.344C2284.95 573.313 2284.92 573.282 2284.9 573.251C2251.74 527.597 2218.84 490.006 2185.18 456.142C2123.94 395.112 2075.41 361.305 2037.83 336.408C2025.93 328.626 2013.96 321.195 2003.78 315.121C1981.13 301.61 1960.3 290.203 1938.24 278.74C1898.99 258.364 1858.27 240.652 1820.48 226.192C1817.02 224.864 1813.55 223.543 1810.06 222.236C1766.06 205.827 1726.15 193.037 1678.42 179.388C1677.49 179.122 1676.57 178.849 1675.67 178.571C1666.03 175.589 1658.85 172.034 1659.13 170.189C1659.42 168.3 1667.52 168.889 1677.65 171.566C1678.29 171.736 1678.94 171.913 1679.59 172.099C1726.31 185.443 1765.13 197.762 1809.59 214.214C1813.13 215.53 1816.66 216.857 1820.19 218.199C1858.29 232.681 1899.77 250.59 1940.17 271.49C1961.44 282.504 1981.45 293.378 2003.9 306.646C2014.39 312.847 2026.52 320.293 2039.29 328.589C2077.93 354.034 2127.36 388.285 2189.82 450.411C2223.34 484.083 2256.18 521.442 2289.64 567.296C2297.38 577.925 2305.11 588.966 2312.81 600.466C2354.15 662.182 2395.76 738.497 2435.34 838.308C2445.28 863.372 2453.64 885.207 2461.64 906.832C2462.09 908.048 2462.53 909.265 2462.98 910.482C2470.5 930.947 2477.94 952.09 2485.69 975.957C2486.72 979.138 2488.05 983.249 2489.64 988.212C2511.24 1043.5 2545.45 1212.02 2634.92 1444.84C2635.22 1445.55 2635.52 1446.26 2635.82 1446.97C2700.62 1602.26 2777.11 1677.69 2838.45 1719.55C2883.06 1749.68 2920.66 1766.16 2953.23 1778.39C2956.55 1779.63 2959.81 1780.79 2963.02 1781.9C2969.63 1784.18 2975.92 1786.17 2981.93 1787.96C3007.85 1795.58 3029.12 1799.63 3050.24 1802.07C3114.48 1808.71 3160.29 1802.47 3212.38 1789.43C3256.72 1778.13 3308.79 1761.09 3352.67 1742.96C3352.74 1742.94 3352.81 1742.91 3352.87 1742.88C3358.08 1740.75 3363.22 1738.6 3368.24 1736.46ZM6109.25 1472.25C6121.54 1469.85 6132 1468.9 6132.39 1470.89C6132.76 1472.87 6122.75 1477.09 6110.23 1479.52C6081.03 1485.24 6050.02 1488.29 6020.07 1487.9C6007.37 1487.77 5996.86 1485.34 5997.18 1483.34C5997.39 1481.32 6008.16 1480.47 6020.57 1480.59C6050.02 1480.94 6080.47 1477.91 6109.25 1472.25ZM3311.07 1717.9C3321.7 1714.03 3332.02 1711.77 3335.11 1712.78C3338.11 1713.81 3332.24 1717.99 3322.07 1721.84C3316.49 1723.93 3307.33 1727.37 3295.12 1731.6C3242.44 1747.94 3116.34 1795.88 2965.65 1745.45C2873.3 1715.2 2782.96 1644.77 2724 1550.26C2710.81 1529.76 2700.11 1510.87 2690.39 1492.36C2650.22 1413.73 2619.93 1348 2572.93 1187.22C2473.19 712.568 2183.87 245.273 1687.41 137.065C1483.18 79.0209 1273.33 48.645 1062.27 56.5773C861.253 64.057 662.651 104.108 476.508 180.113C317.296 235.89 63.0127 412.253 16.8542 469.098C8.99963 476.844 0.958418 483.17 0.535099 480.656C-1.81631 480.208 3.86644 471.615 12.0012 463.595C58.2983 406.682 312.908 229.974 472.095 173.998C658.753 97.5515 857.666 57.1663 1059.14 49.3438C1271.94 41.0146 1483.58 70.673 1689.93 128.137C2189.84 232.609 2490.22 709.294 2588.75 1183.54C2635.2 1342.24 2655.79 1407.52 2695.19 1485.68C2704.68 1503.93 2715.38 1523.05 2728.35 1543.44C2786.99 1638.5 2876.57 1708.53 2968.27 1738.49C3110.42 1786.23 3231.19 1743.44 3283.36 1727.62C3295.81 1723.47 3305.24 1720.03 3311.07 1717.9ZM3781.16 1479.07C3888.93 1411.24 4041.34 1312.31 4176.9 1229.7C4243.12 1189.27 4305.01 1152.93 4355.26 1124.32C4432.92 1080.15 4483.46 1055.24 4533.75 1031.21C4534.29 1030.95 4534.83 1030.69 4535.37 1030.44C4585.8 1006.63 4636.29 983.082 4719.26 946.563C4735.63 939.399 4753.31 931.775 4772.09 923.874C4849.75 891.119 4948.59 861.724 5053.19 866.865C5053.29 866.87 5053.39 866.876 5053.49 866.882C5182.03 870.87 5303.48 934.253 5376.92 991.254C5625.13 1202.81 5751.27 1359.39 5847.52 1400.12C6007.98 1499.67 6226.89 1416.07 6371.11 1313.42C6389.36 1302.27 6363.5 1328.99 6332.16 1347.66C6331.04 1348.35 6329.91 1349.03 6328.79 1349.71C6318.17 1356.14 6309.02 1361.56 6294.6 1369.85C6274.31 1381.63 6259.7 1389.38 6246.48 1396.07C6226.71 1405.6 6155.04 1443.17 6064.5 1451.96C5973.88 1463.04 5879.3 1428.37 5836.91 1402.79C5745.64 1363.07 5612.63 1213.55 5366.43 1003.64C5295.71 949.102 5183.69 879.55 5055.76 874.352C5055.41 874.334 5055.07 874.315 5054.72 874.297C4952.19 868.752 4853 897.628 4774.92 930.641C4756.27 938.484 4738.67 946.071 4722.32 953.223C4636.55 990.971 4583.94 1015.62 4532.96 1039.8C4532.46 1040.03 4531.97 1040.27 4531.47 1040.5C4481.83 1064.32 4433.67 1088.15 4359 1130.61C4307.73 1159.81 4245.22 1196.56 4178.64 1237.23C4043.8 1319.47 3893.5 1416.98 3786.6 1484.31C3776.87 1490.45 3767.8 1494.2 3766.31 1492.75C3764.82 1491.29 3771.45 1485.21 3781.16 1479.07ZM3759.2 1438.98C4055.73 1242.27 4361.04 1037.23 4694.76 899.743C4712.33 892.031 4731.44 883.849 4751.84 875.41C4834.6 841.035 4942.6 810.373 5057.29 817.832C5058.91 817.937 5060.53 818.048 5062.14 818.166C5204.62 826.568 5329.47 901.369 5403.72 958.968C5660.72 1179.28 5782.3 1324.32 5869.84 1360.24C5945.86 1398.86 5970.99 1396.96 6004.75 1400.54C6005.7 1400.59 6006.64 1400.65 6007.59 1400.69C6007.65 1400.69 6007.71 1400.69 6007.78 1400.68C6008.97 1400.64 6009.97 1400.63 6010.49 1400.63C6011.54 1400.62 6012.4 1400.63 6012.73 1400.63C6013.47 1400.64 6014.09 1400.65 6014.31 1400.66C6015.22 1400.68 6016.26 1400.7 6016.93 1400.72C6022.89 1400.94 6041.78 1400.98 6057.48 1399.57C6073.29 1398.24 6083.88 1396.8 6095.97 1394.79C6097.18 1394.59 6098.39 1394.38 6099.61 1394.16C6110.82 1392.11 6121.71 1389.9 6138.24 1385.25C6148.31 1382.39 6156.24 1381.47 6155.65 1383.82C6155.05 1386.15 6146.08 1390.79 6135.91 1393.55C6118.62 1398.25 6105.9 1400.68 6094.79 1402.51C6093.57 1402.71 6092.35 1402.9 6091.14 1403.09C6079.4 1404.84 6070.25 1405.95 6055.55 1407.1C6034.51 1408.77 6020.34 1408.63 6005.93 1407.95C5970.19 1404.36 5940.47 1405.96 5859.95 1363.31C5775.9 1327.38 5656.18 1185.41 5399.41 964.883C5325.48 907.51 5201.93 833.693 5061.55 825.465C5059.91 825.348 5058.27 825.239 5056.63 825.137C4943.41 817.819 4836.69 848.107 4754.66 882.166C4734.35 890.569 4715.32 898.714 4697.83 906.39C4363.32 1052.96 4070.76 1257.44 3764.66 1444.2C3708.87 1479.47 3657.37 1510.9 3609.63 1538.59C3468.5 1620.2 3356.21 1673.35 3246.76 1705.38C3223.41 1711.28 3158.16 1731.34 3067.45 1722.38C3041.02 1719.48 3012.57 1713.59 2982.86 1702.86C2982.52 1702.74 2982.18 1702.62 2981.84 1702.49C2907.62 1676.2 2829.9 1622.38 2770.94 1532.69C2758.25 1513.7 2748.22 1496.62 2738.78 1479.24C2699.76 1405.01 2674.43 1343.1 2627.46 1183.52C2575.06 987.087 2466.1 646.93 2339.85 497.864C2281.89 421.288 2242.15 384.235 2214.5 357.674C2206.7 350.349 2199.49 343.795 2193.16 338.164C2176.59 323.465 2163.23 312.256 2144.93 298.014C2012.88 199.028 1907.23 148.586 1728.71 94.3809C1717.33 91.0711 1707.66 86.7056 1707.34 84.5125C1707.02 82.3234 1716.23 83.1286 1727.71 86.4359C1907.43 140.639 2015.54 191.662 2150.23 292.849C2169.45 307.83 2183.79 319.946 2200.69 335.043C2207.15 340.83 2213.99 347.094 2221.45 354.13C2248.71 380.462 2288.3 417.474 2346.29 494.227C2473.05 644.296 2582.2 985.458 2634.35 1180.97C2680.79 1338.73 2705.43 1399.25 2743.56 1472.63C2752.88 1489.98 2762.8 1507.05 2775.32 1526C2833.52 1615.53 2909.74 1668.82 2982.9 1695.05C2983.41 1695.24 2983.92 1695.43 2984.44 1695.61C3012.94 1705.99 3040.16 1711.78 3065.53 1714.76C3156.21 1724.08 3216.88 1704.88 3236.74 1700.4C3349.1 1669.02 3465.69 1613.47 3607.75 1531.2C3654.91 1503.81 3705.26 1473.06 3759.2 1438.98ZM1068.52 0.0638056C1080.12 -0.325266 1090.31 1.11624 1091.16 3.12594C1092.01 5.13936 1083.23 6.94654 1071.67 7.31388C1010.65 9.31463 966.878 13.3995 932.114 17.169C869.011 24.3939 837.996 29.7218 792.883 37.634C675.12 58.7864 564.321 92.0436 468.239 130.592C307.506 194.705 189.57 272.481 128.526 316.314C118.994 323.141 110.987 327.037 109.663 325.497C108.752 323.66 114.989 316.998 124.579 310.132C185.537 266.403 303.049 188.833 463.807 124.481C560.507 85.5663 671.998 51.9477 791.023 30.5208C834.942 22.8033 864.541 17.6755 926.282 10.4273C961.358 6.5362 1005.41 2.24169 1068.52 0.0638056Z" fill="#2B2C30"/>
</svg>
