<svg width="6668" height="2038" viewBox="0 0 6668 2038" fill="none" xmlns="http://www.w3.org/2000/svg">
<path d="M134.954 772.971C182.798 824.866 246.508 884.825 297.307 933.075C298.005 933.742 298.705 934.408 299.405 935.076C319.927 954.612 341.312 974.818 367.262 998.515C370.606 1001.57 374.055 1004.7 377.604 1007.91C408.358 1035.68 446.855 1069.68 501.465 1113.94C684.155 1262.09 847.902 1351.77 898.427 1379.49C999.894 1434.49 1109.7 1491.77 1264.5 1556.52C1278.61 1562.39 1293.18 1568.34 1308.26 1574.36C1320.47 1579.23 1330.08 1584.73 1329.63 1586.73C1329.17 1588.72 1318.78 1586.44 1306.53 1581.55C1291.73 1575.65 1277.43 1569.83 1263.61 1564.09C1263.54 1564.06 1263.48 1564.04 1263.42 1564.01C1107.22 1498.73 999.765 1442.56 900.286 1388.92C848.39 1360.57 680.131 1268.8 492.821 1116.42C437.413 1071.37 398.785 1037.11 367.535 1008.79C364.075 1005.65 360.729 1002.59 357.495 999.627C357.419 999.557 357.343 999.487 357.267 999.417C331.396 975.681 310.532 955.885 291.08 937.308C290.665 936.913 290.25 936.519 289.836 936.125C238.384 887.138 175.848 828.138 129.288 777.631C120.272 767.896 114.157 758.716 115.788 757.505C117.315 756.178 126.016 763.326 134.954 772.971ZM3978.23 77.9228C4009.55 73.4886 4045.56 75.7615 4081.81 89.4179C4116.16 102.002 4147.13 126.647 4170.59 154.329C4219.28 212.057 4243.42 278.915 4255.03 309.87C4265.87 340.087 4277.46 373.901 4290.04 415.9C4292.82 425.214 4295.67 434.997 4298.57 445.254C4308.27 479.629 4317.89 517.195 4327.5 559.507C4361.92 714.776 4381.85 817.743 4399.06 890.542C4402.52 905.574 4405.83 919.625 4408.97 932.672C4408.97 932.694 4408.98 932.716 4408.98 932.738C4420.79 981.863 4430.41 1018.66 4438.93 1052.78C4454.11 1112.96 4468.07 1162.54 4488.12 1221.66C4514.36 1302.79 4576.02 1417.54 4644.36 1471.83C4647.94 1474.84 4651.64 1477.84 4655.45 1480.81C4703.51 1518.45 4781.28 1559.44 4893.67 1549.97C4964.8 1543.58 5020.54 1524.49 5074.38 1502.57C5090.81 1495.75 5106.35 1489.92 5121.12 1484.87C5137.83 1479.17 5154.97 1474.01 5171.32 1469.77C5211.25 1459.39 5249.06 1453.62 5283.83 1451.3C5503.63 1442.63 5607.95 1551.24 5669.41 1596.99C5716.84 1637.72 5740.88 1663.89 5758.59 1682.27C5763.91 1687.87 5768.58 1692.85 5773.03 1697.52C5812.66 1739.08 5849.3 1777.77 5895.65 1823.48C5906.02 1833.68 5916.82 1844.14 5928.32 1854.99C5967.11 1891.59 5998.79 1916.38 6025.23 1934.73C6036.79 1942.75 6047.03 1949.35 6057.06 1955.5C6057.24 1955.61 6057.43 1955.72 6057.62 1955.83C6059.02 1956.7 6060.42 1957.55 6061.81 1958.38C6062.86 1959.02 6063.91 1959.64 6064.97 1960.26C6065.39 1960.49 6065.77 1960.7 6066.06 1960.85C6066.28 1960.97 6066.46 1961.06 6066.57 1961.12C6066.59 1961.14 6066.61 1961.15 6066.63 1961.16C6068.68 1962.26 6070.4 1963.25 6070.76 1963.46C6071.38 1963.81 6071.92 1964.13 6072.2 1964.29C6073.68 1965.15 6075.57 1966.27 6076.83 1967.01C6080.07 1968.91 6085.69 1972.23 6094.52 1977.08C6102.2 1981.2 6109.97 1985.11 6119.66 1989.6C6120.27 1989.89 6120.88 1990.17 6121.49 1990.45C6131.01 1994.8 6142.11 1999.63 6156.63 2005.1C6169.78 2010.07 6181.69 2015.46 6182.91 2017.96C6184.13 2020.43 6173.91 2019.21 6160.43 2014.37C6146.46 2009.32 6135.75 2004.89 6126.04 2000.64C6125.43 2000.37 6124.81 2000.1 6124.2 1999.82C6114.11 1995.34 6104.65 1990.78 6094.74 1985.54C6091.46 1983.81 6088.1 1981.98 6084.99 1980.24C6079.35 1977.14 6072.95 1973.58 6065.38 1969.15C6063.86 1968.26 6062.3 1967.33 6060.7 1966.38C6050.35 1960.21 6038.92 1953.05 6026.19 1944.36C5996.18 1923.88 5960.99 1896.25 5918.79 1856.14C5907.86 1845.75 5897.36 1835.54 5887.17 1825.49C5840.62 1779.46 5801.33 1737.93 5759.27 1694.12C5753.5 1688.11 5748.01 1682.33 5742.11 1676.19C5724.54 1658.17 5703.94 1636.06 5660.22 1598.89C5601.71 1556.12 5501.21 1451.09 5286.41 1458.48C5250.28 1460.72 5210.85 1466.87 5170.48 1477.56C5154.5 1481.79 5138.45 1486.69 5122.81 1492.05C5108.35 1497 5093.18 1502.71 5077.21 1509.34C5024.22 1530.94 4969.53 1549.63 4900.22 1556.8C4788.6 1567.75 4709.94 1530.35 4659.81 1493.52C4658.02 1492.22 4656.25 1490.89 4654.48 1489.55C4652.3 1487.89 4650.12 1486.19 4648.08 1484.57C4571.69 1427.46 4505.62 1303.42 4477.35 1213.32C4458.37 1155.7 4445.39 1109.03 4430.26 1048.56C4422.94 1018.87 4414.6 987.269 4402.94 939.013C4399.67 925.451 4396.13 910.451 4392.29 893.816C4374.74 819.664 4354.52 714.942 4319.69 558.318C4310.35 517.348 4301.2 481.614 4291.59 447.536C4288.65 437.107 4285.72 427.014 4282.8 417.265C4270.23 375.304 4257.27 337.39 4244.67 303.391C4233.53 274.598 4209.65 210.848 4162.93 156.705C4139.89 130.055 4110.29 107.61 4079.22 96.2792C4047.01 84.2056 4016.3 81.6865 3989.95 84.1922C3984.45 84.7092 3978.93 85.424 3973.61 86.2967C3926.56 93.7052 3879.66 116.41 3846.52 138.936C3693.67 243.755 3460.38 508.002 3307.41 686.074C3305.42 688.394 3303.43 690.717 3301.44 693.042C3126.1 899.533 2994.15 1047.46 2947.49 1096.55C2945.33 1098.86 2943.37 1100.96 2941.6 1102.85C2940.03 1104.54 2938.6 1106.07 2937.34 1107.41C2918.44 1127.55 2901.76 1145.39 2884.15 1163.91C2883.18 1164.92 2882.22 1165.93 2881.26 1166.94C2862.64 1186.47 2842.66 1207.07 2818.69 1230.56C2729.13 1318.24 2651.91 1385.36 2581.29 1440.41C2568.25 1450.56 2555.5 1460.24 2543.01 1469.5C2542.97 1469.53 2542.93 1469.56 2542.9 1469.58C2487.23 1510.8 2436.18 1544.23 2385.23 1573.43C2292.52 1626.26 2224.21 1653.45 2170.83 1672.16C2154.12 1677.96 2138.18 1683.01 2123.27 1687.39C2090.91 1696.85 2062.31 1703.64 2032.28 1709.16C1975.74 1719.43 1923.13 1724.11 1870.57 1724.24C1865.88 1724.24 1861.19 1724.21 1856.5 1724.14C1800.67 1723.34 1743.38 1716.9 1686.41 1704.17C1672.97 1701.18 1662.19 1696.71 1662.42 1694.69C1662.65 1692.65 1673.69 1693.81 1687 1696.79C1741.93 1709.11 1797.27 1715.65 1852.55 1716.72C1857.19 1716.81 1861.91 1716.86 1866.6 1716.87C1918.65 1717 1971.76 1712.58 2028.93 1702.32C2057.66 1697.1 2084.51 1690.86 2116.04 1681.84C2131.05 1677.52 2147.26 1672.47 2164.88 1666.44C2218.73 1647.78 2287.57 1620.56 2380.74 1567.55C2430.83 1538.88 2481.05 1506.14 2536.57 1465.14C2549.11 1455.87 2561.93 1446.15 2575.09 1435.93C2645.73 1380.99 2723.15 1313.81 2813.05 1225.82C2835.66 1203.67 2854.56 1184.25 2873.13 1164.81C2874.17 1163.72 2875.21 1162.63 2876.25 1161.54C2893.69 1143.23 2911.29 1124.45 2931.23 1103.21C2933.89 1100.37 2937.29 1096.74 2941.37 1092.37C2988.06 1043.29 3120.36 894.985 3296.35 687.721C3296.9 687.085 3297.44 686.45 3297.99 685.814C3415.92 547.939 3484.41 471.477 3534.77 414.597C3574.89 369.273 3606.36 336.94 3632.3 311.464C3637.22 306.638 3641.86 302.131 3646.27 297.889C3666.44 278.535 3682.35 263.987 3697.72 249.845C3745.82 206.054 3781.12 176.063 3824.75 143.969C3863.53 115.858 3913.06 90.4668 3961.61 80.7975C3961.68 80.783 3961.75 80.7686 3961.82 80.7543C3967.41 79.6113 3972.89 78.6733 3978.23 77.9228ZM6358.16 2028.23C6372.25 2026.79 6383.16 2026.59 6383.47 2028.61C6383.57 2030.62 6372.83 2034.11 6358.4 2035.57C6323.72 2039.09 6289.32 2038.44 6255.3 2033.5C6241.04 2031.45 6229.87 2027.31 6230.46 2025.39C6230.99 2023.42 6242.88 2024.33 6256.83 2026.32C6290.27 2031.14 6324.02 2031.74 6358.16 2028.23ZM3919.41 52.0905C3932.31 48.0224 3945.51 46.7562 3948.77 48.1885C3952 49.6492 3944.37 52.7857 3931.8 56.2682C3925.01 58.1584 3914.43 61.3506 3900.77 66.5956C3790.36 95.8573 3570.74 306.986 3368.02 555.768C3350.64 576.375 3335.39 594.626 3320.55 612.443C3257.27 688.168 3211.05 752.681 3087.28 895.521C2728.34 1300.88 2248.17 1816.75 1647.92 1649.87C1430.4 1588.16 1220.97 1505.54 1019.85 1402.57C815.267 1297.77 623.371 1170.93 445.882 1024.34C293.964 905.977 56.6972 646.058 11.3297 575.789C3.3304 565.067 -1.84713 554.76 0.618488 554.727C1.78563 552.897 9.37044 560.922 17.5194 571.838C62.1548 641.018 298.156 899.742 448.993 1017.4C625.754 1163.57 816.634 1289.95 1020.3 1394.54C1221.8 1497.96 1432.03 1580.26 1650.39 1641.14C2244.47 1803.6 2717.03 1289.23 3075.74 884.099C3198.07 742.888 3249.22 686.399 3312.2 610.979C3327.07 593.122 3342.53 574.596 3359.94 553.952C3559.89 308.849 3776.06 98.0655 3887.18 63.9052C3901.71 57.8652 3912.41 54.2898 3919.41 52.0905ZM4330.39 415.09C4373.31 554.05 4409.64 755.648 4449.95 929.724C4469.58 1014.58 4490.88 1092.78 4511.63 1153.52C4544.12 1248.13 4570.59 1305.44 4603.31 1358.64C4603.66 1359.2 4604.01 1359.76 4604.36 1360.32C4638.32 1410.82 4676.62 1468.33 4772.92 1503.6C4849.16 1531.4 4959.97 1517.35 5061.71 1472.24C5091.23 1459.69 5117.99 1449.79 5148.34 1440.67C5148.45 1440.64 5148.56 1440.61 5148.67 1440.57C5285.64 1395.43 5441.37 1411.36 5536.34 1460.51C5856.71 1649.67 5971.44 1859.88 6075.27 1913.68C6238.18 2053.36 6500.95 1984.95 6660.61 1863.52C6681.05 1850.73 6651.41 1880.43 6616.36 1901.19C6615.1 1901.95 6613.84 1902.71 6612.59 1903.46C6601.22 1910.26 6588.97 1917.48 6573.41 1926.11C6550.63 1938.88 6535.02 1946.76 6518 1954.79C6497.74 1963.83 6411.63 2005.8 6309.84 2003.77C6206.45 2004.33 6107.66 1947.91 6063.63 1914.5C5965.39 1862.81 5842.81 1659.95 5528.51 1474.74C5438.64 1428.55 5291.01 1402.74 5153.67 1446.76C5153.28 1446.87 5152.9 1446.98 5152.52 1447.09C5121.59 1456.29 5094.66 1466.22 5064.54 1479.02C4962.99 1524.05 4849.88 1539.35 4770.74 1510.6C4668.12 1472.97 4628.55 1410.33 4594.4 1358.32C4594.07 1357.8 4593.75 1357.27 4593.43 1356.74C4561.36 1303.12 4536.15 1247.39 4504.74 1156.01C4483.43 1093.61 4461.92 1014.25 4442.18 928.701C4402.11 755.027 4366.21 556.482 4323.96 419.139C4320.31 407.034 4318.51 395.942 4320.26 394.765C4322.01 393.589 4326.73 402.986 4330.39 415.09ZM4374.99 404.917C4504.88 780.929 4487.44 1282.55 4786.57 1452.56C4847.38 1476.14 4944.39 1467.75 5042.31 1425.83C5074.14 1412.71 5102.94 1402.49 5136.06 1393.02C5137.79 1392.53 5139.52 1392.05 5141.24 1391.57C5288.87 1345.99 5458.2 1371.9 5556.27 1423.56C5895.64 1626.67 6004.27 1828.21 6102.71 1877.11C6184.58 1932.65 6212.33 1935.24 6249.77 1944.5C6250.81 1944.71 6251.86 1944.91 6252.9 1945.11C6252.97 1945.12 6253.04 1945.13 6253.11 1945.13C6254.44 1945.28 6255.56 1945.43 6256.13 1945.51C6257.3 1945.66 6258.25 1945.81 6258.61 1945.86C6259.43 1945.98 6260.12 1946.09 6260.36 1946.13C6261.37 1946.29 6262.51 1946.47 6263.25 1946.59C6269.92 1947.77 6291.23 1950.57 6308.69 1950.93C6325.89 1951.42 6338.6 1950.93 6352.32 1949.85C6353.76 1949.74 6354.99 1949.63 6356.32 1949.51C6368.01 1948.41 6380.9 1946.89 6400.35 1942.69C6411.74 1940.21 6419.91 1939.66 6419.17 1941.98C6418.13 1944.35 6409.15 1948.44 6396.74 1951C6375.98 1955.19 6362.53 1956.51 6350.09 1957.47C6348.69 1957.58 6347.29 1957.67 6345.89 1957.76C6332.61 1958.53 6321.33 1958.76 6305.66 1958.18C6282.1 1957.35 6265.81 1954.99 6250.1 1952.04C6210.53 1942.57 6177.64 1938.56 6091.62 1878.33C5997.39 1830.49 5890.73 1632.98 5553.26 1430.24C5456.07 1379.07 5289.24 1353.57 5143.12 1398.65C5141.36 1399.14 5139.6 1399.63 5137.84 1400.13C5105.14 1409.5 5076.63 1419.61 5045.14 1432.59C4946.32 1474.92 4847.18 1483.81 4784.27 1459.51C4468.29 1282.95 4486.18 787.947 4368.57 409.04C4346.38 335.304 4321.87 268.029 4290.18 207.736C4248.48 127.977 4188.6 55.621 4105.93 25.4359C4008.77 -11.1545 3912.18 13.309 3840.8 49.9756C3812.71 63.5735 3736.85 106.023 3650.09 183.594C3625.56 205.172 3596.33 232.638 3569.14 259.816C3499.18 329.502 3422.25 415.885 3338.9 514.501C3320.94 535.722 3306.03 553.548 3291.1 571.446C3227.47 647.515 3178.88 708.015 3055.79 850.422C2906.44 1027.01 2635.66 1304.64 2464.83 1416.17C2381.2 1474.19 2330.2 1500.57 2294.42 1518.89C2284.33 1523.97 2275.43 1528.26 2267.26 1532.11C2245.81 1542.17 2229.52 1549.31 2207.14 1558.51C2047.58 1619.97 1924.84 1646.41 1732.37 1615.95C1720.42 1613.8 1710.3 1609.95 1709.85 1607.79C1709.39 1605.61 1718.69 1605.95 1730.52 1608.14C1921.23 1639.18 2044.79 1613.45 2205.34 1551.33C2228.47 1541.79 2245.85 1534.12 2267.52 1523.87C2275.52 1520.07 2284.06 1515.91 2293.57 1511.09C2328.44 1493.14 2378.63 1467.12 2461.47 1409.59C2631.14 1298.68 2901.05 1022 3049.87 846.053C3171.67 705.166 3219.41 645.743 3282.76 569.976C3297.71 552.043 3312.82 533.955 3330.79 512.705C3414.19 413.947 3491.58 326.89 3561.61 256.956C3588.94 229.552 3617.91 202.232 3642.55 180.436C3731.58 100.768 3803.28 60.9689 3827.77 48.2842C3901.6 8.43205 4004.65 -20.6195 4108.52 18.5694C4195.4 50.4299 4256.16 126.202 4297.91 206.687C4329.29 266.957 4353.32 333.228 4374.99 404.917ZM1053.53 1356.6C1064.8 1362.33 1073.94 1368.73 1073.83 1370.95C1073.72 1373.15 1064.36 1370.34 1053.05 1364.6C993.19 1334.18 951.315 1310.98 917.879 1292.08C857.43 1257.64 828.128 1239.61 785.698 1212.39C675.58 1141.34 574.035 1066.13 486.459 994.259C340.239 874.557 232.91 763.83 178.057 703.509C169.39 693.999 164.104 685.608 165.681 684.34C167.281 683.093 175.118 689.417 183.763 698.897C238.103 758.619 344.29 868.241 489.549 987.325C577.096 1059.26 678.59 1134.53 789.159 1205.9C830.206 1232.24 857.938 1249.35 916.709 1282.97C949.929 1301.82 992.173 1325.34 1053.53 1356.6Z" fill="#2B2C30"/>
</svg>
